<?xml version="1.0" standalone="no"?>
<!DOCTYPE svg PUBLIC "-//W3C//DTD SVG 20010904//EN"
 "http://www.w3.org/TR/2001/REC-SVG-20010904/DTD/svg10.dtd">
<svg version="1.0" xmlns="http://www.w3.org/2000/svg"
 width="200.000000pt" height="200.000000pt" viewBox="0 0 200.000000 200.000000"
 preserveAspectRatio="xMidYMid meet">
<metadata>
Created by potrace 1.11, written by Peter Selinger 2001-2013
</metadata>
<g transform="translate(0.000000,200.000000) scale(0.100000,-0.100000)"
fill="#000000" stroke="none">
<path d="M971 1684 c-16 -12 -21 -22 -17 -39 4 -15 -8 -53 -35 -111 -22 -49
-42 -90 -43 -92 -19 -18 -68 -7 -170 39 -63 29 -115 55 -114 58 3 25 -5 43
-25 56 -33 21 -82 4 -96 -35 -18 -54 43 -100 97 -71 12 6 46 -4 121 -38 l103
-46 3 -38 c2 -34 -4 -44 -56 -97 -55 -56 -59 -58 -87 -48 -36 14 -71 5 -103
-24 l-24 -24 -87 40 c-64 28 -88 44 -88 57 0 22 -33 41 -63 37 -25 -3 -47 -41
-40 -68 7 -25 49 -43 73 -30 15 8 34 4 85 -20 37 -17 77 -35 91 -40 14 -6 22
-15 19 -20 -4 -6 1 -24 9 -42 9 -17 16 -35 16 -40 0 -20 -76 -121 -102 -134
-44 -23 -35 -74 12 -74 27 0 46 23 38 47 -2 5 16 39 40 75 41 63 45 66 76 61
20 -3 45 1 62 10 27 14 30 13 80 -22 41 -28 51 -41 48 -56 -3 -12 4 -32 16
-47 16 -22 27 -26 57 -23 20 2 40 9 44 17 5 7 12 18 16 23 4 6 61 27 125 46
113 35 118 35 134 18 20 -23 67 -33 91 -21 15 8 28 1 69 -36 29 -26 55 -57 59
-70 13 -43 64 -51 85 -12 12 23 1 60 -19 61 -48 2 -63 9 -104 49 -37 34 -44
47 -38 64 12 33 -5 80 -37 98 l-29 17 0 130 c0 103 3 131 14 135 8 3 58 -20
112 -51 96 -56 99 -59 182 -176 46 -65 85 -122 85 -128 1 -5 2 -13 3 -19 2
-18 40 -11 51 9 8 16 5 23 -15 38 -13 10 -58 65 -99 123 l-75 105 37 31 c20
18 53 46 72 63 23 21 42 30 56 26 28 -6 64 21 64 49 0 13 -9 31 -20 41 -29 26
-74 10 -78 -28 -2 -19 -25 -46 -78 -92 l-75 -66 -57 32 c-102 58 -136 84 -142
109 -7 30 -47 52 -70 40 -12 -6 -38 9 -103 61 -48 39 -87 76 -87 83 0 12 -31
46 -41 46 -3 0 -15 -7 -28 -16z m137 -140 c59 -47 82 -73 82 -89 0 -12 9 -30
20 -40 18 -16 20 -31 20 -152 0 -100 -3 -133 -12 -133 -15 0 -281 228 -286
244 -2 6 -8 21 -14 32 -8 18 -2 39 33 113 27 59 48 91 58 91 9 0 53 -30 99
-66z m-32 -349 c6 -5 31 -27 56 -48 44 -37 45 -38 34 -73 -11 -34 -14 -36
-121 -69 l-109 -35 -28 26 c-22 22 -32 25 -63 20 -28 -6 -42 -2 -68 16 -54 37
-59 46 -61 105 -3 56 -3 56 53 112 46 47 61 56 86 53 17 -2 39 4 50 12 18 13
25 9 90 -47 38 -34 75 -66 81 -72z"/>
<path d="M1854 775 c-9 -22 0 -50 16 -50 21 0 26 51 5 59 -9 3 -18 0 -21 -9z"/>
<path d="M100 586 c0 -91 4 -167 8 -170 24 -14 29 17 28 169 -1 144 -3 160
-18 163 -17 3 -18 -10 -18 -162z"/>
<path d="M847 743 c-4 -3 -7 -18 -7 -33 0 -22 -4 -27 -22 -26 -30 1 -30 -28 0
-32 22 -3 22 -6 21 -109 -1 -82 2 -109 14 -120 20 -21 38 -8 29 20 -5 12 -8
63 -7 112 l0 90 28 3 c35 4 34 38 -1 36 -12 -1 -23 4 -23 10 -1 6 -2 16 -4 21
-1 6 -3 16 -3 23 -2 13 -15 16 -25 5z"/>
<path d="M1468 694 c-3 -3 -38 -7 -77 -9 -118 -5 -136 -28 -129 -160 4 -90 15
-105 88 -111 64 -5 70 -9 70 -39 0 -37 -7 -40 -137 -44 -14 -1 -23 -7 -23 -16
0 -13 13 -15 73 -14 39 1 80 6 90 11 23 12 39 53 31 84 -8 31 -35 45 -91 49
-24 1 -49 7 -54 12 -16 16 -12 175 3 185 15 9 70 11 92 2 13 -5 16 -23 16 -96
0 -80 2 -89 18 -86 15 3 17 16 18 98 0 81 3 95 17 98 9 2 17 10 17 17 0 15
-14 27 -22 19z"/>
<path d="M266 669 c-26 -21 -27 -22 -24 -137 2 -96 6 -117 18 -117 12 0 15 19
16 107 1 120 8 138 58 138 59 0 65 -13 68 -135 3 -90 6 -110 18 -110 12 0 15
20 15 118 0 113 -1 120 -24 138 -33 27 -110 26 -145 -2z"/>
<path d="M560 672 c-24 -20 -31 -82 -11 -106 6 -7 38 -21 71 -30 50 -14 61
-21 66 -43 9 -34 -16 -53 -68 -53 -35 0 -55 16 -56 45 -1 6 -8 11 -16 13 -20
4 -22 -36 -3 -61 26 -36 130 -39 164 -4 18 17 20 84 4 101 -7 6 -40 20 -74 31
-58 19 -62 22 -62 50 0 58 94 62 114 4 6 -17 15 -28 21 -24 17 10 11 54 -10
75 -27 27 -108 28 -140 2z"/>
<path d="M1000 669 c0 -16 8 -19 49 -19 70 0 81 -6 81 -46 0 -19 -3 -35 -7
-35 -5 -1 -19 -2 -33 -4 -52 -4 -91 -17 -100 -35 -32 -59 9 -118 81 -116 31 1
44 6 44 16 0 9 -11 15 -31 16 -51 2 -64 11 -64 43 0 32 9 38 70 43 l35 3 5
-52 c3 -29 11 -58 17 -64 17 -17 34 -1 27 27 -4 14 -7 62 -9 107 -1 45 -5 90
-9 99 -8 18 -44 29 -112 33 -37 2 -44 -1 -44 -16z"/>
<path d="M1562 673 c-5 -10 -8 -65 -7 -122 2 -95 5 -107 25 -123 38 -31 138
-21 162 16 4 6 8 63 8 127 0 96 -3 116 -15 116 -19 0 -17 8 -19 -120 -2 -118
-6 -127 -61 -127 -55 0 -60 10 -61 122 -1 57 -2 109 -3 116 -1 18 -19 15 -29
-5z"/>
<path d="M1857 684 c-14 -14 -8 -239 6 -259 19 -25 38 -11 31 25 -4 16 -7 75
-8 131 -1 95 -9 123 -29 103z"/>
</g>
</svg>
